<svg viewBox="80 80 320 320" fill="none" xmlns="http://www.w3.org/2000/svg">
  <g stroke="#000000" stroke-width="3" stroke-linecap="round" opacity="0.8">
    <line x1="250" y1="230" x2="210" y2="180" />
    <line x1="250" y1="230" x2="300" y2="210" />
    <line x1="250" y1="230" x2="260" y2="290" />
    <line x1="210" y1="180" x2="160" y2="200" />
    <line x1="210" y1="180" x2="220" y2="120" />
    <line x1="300" y1="210" x2="350" y2="180" />
    <line x1="300" y1="210" x2="340" y2="250" />
    <line x1="260" y1="290" x2="220" y2="330" />
    <line x1="260" y1="290" x2="310" y2="340" />
    <line x1="350" y1="180" x2="390" y2="190" />
    <line x1="350" y1="180" x2="360" y2="130" />
    <line x1="160" y1="200" x2="120" y2="170" />
    <line x1="160" y1="200" x2="130" y2="240" />
    <line x1="220" y1="120" x2="260" y2="90" />
    <line x1="310" y1="340" x2="300" y2="390" />
  </g>

  <circle cx="250" cy="230" r="14" fill="#000000" />
  
  <circle cx="210" cy="180" r="10" fill="#000000" />
  <circle cx="300" cy="210" r="11" fill="#000000" />
  <circle cx="260" cy="290" r="10" fill="#000000" />
  
  <circle cx="160" cy="200" r="8" fill="#000000" />
  <circle cx="220" cy="120" r="8" fill="#000000" />
  <circle cx="350" cy="180" r="9" fill="#000000" />
  <circle cx="340" cy="250" r="8" fill="#000000" />
  <circle cx="220" cy="330" r="7" fill="#000000" />
  <circle cx="310" cy="340" r="8" fill="#000000" />
  
  <circle cx="120" cy="170" r="6" fill="#000000" />
  <circle cx="130" cy="240" r="6" fill="#000000" />
  <circle cx="260" cy="90" r="6" fill="#000000" />
  <circle cx="390" cy="190" r="6" fill="#000000" />
  <circle cx="360" cy="130" r="6" fill="#000000" />
  <circle cx="300" cy="390" r="6" fill="#000000" />
</svg>
